<svg
  xmlns="http://www.w3.org/2000/svg"
  width="100"
  height="100"
  viewBox="0 0 100 100"
  fill="none"
>
  <!-- Body -->
  <circle cx="50" cy="30" r="20" fill="#FFD700" />

  <!-- Head -->
  <circle cx="50" cy="20" r="10" fill="#F1C27D" />

  <!-- Arms -->
  <path d="M30 30L10 40M70 30L90 40" stroke="#000" stroke-width="2" />

  <!-- Legs -->
  <line x1="40" y1="50" x2="35" y2="70" stroke="#000" stroke-width="2" />
  <line x1="60" y1="50" x2="65" y2="70" stroke="#000" stroke-width="2" />

  <!-- Carpenter's Tools - Hammer -->
  <path
    d="M80 25L75 30L60 15L65 10L80 25ZM70 20L80 30M77.5 25H80V22.5L77.5 25Z"
    stroke="#000"
    stroke-width="2"
  />

  <!-- Carpenter's Tools - Saw -->
  <path
    d="M20 40L40 35L25 50L20 40ZM30 37.5L20 47.5M27.5 40V42.5H30L27.5 40Z"
    stroke="#000"
    stroke-width="2"
  />
</svg>

