<?xml version="1.0" encoding="iso-8859-1"?>
<!-- Uploaded to: SVG Repo, www.svgrepo.com, Generator: SVG Repo Mixer Tools -->
<!DOCTYPE svg PUBLIC "-//W3C//DTD SVG 1.1//EN" "http://www.w3.org/Graphics/SVG/1.1/DTD/svg11.dtd">
<svg fill="#000000" version="1.1" id="Capa_1" xmlns="http://www.w3.org/2000/svg" xmlns:xlink="http://www.w3.org/1999/xlink" 
	 width="800px" height="800px" viewBox="0 0 425.643 425.643"
	 xml:space="preserve">
<g>
	<g>
		<path d="M425.643,330.653V94.997c0-15.138-12.271-27.407-27.406-27.407H27.403C12.269,67.59,0,79.859,0,94.997v235.656
			c0,15.132,12.269,27.399,27.403,27.399h370.833C413.372,358.053,425.643,345.785,425.643,330.653z M68.509,216.486
			c0,10.52-4.104,19.556-10.051,24.141v81.808c0,4.548-3.679,8.219-8.217,8.219c-4.546,0-8.219-3.679-8.219-8.219V241.34
			c-6.454-4.324-10.958-13.797-10.958-24.854v-13.712c0-11.062,4.505-20.538,10.958-24.87V92.256c0-4.539,3.681-8.217,8.219-8.217
			c4.546,0,8.217,3.679,8.217,8.217v86.37c5.953,4.584,10.051,13.619,10.051,24.148V216.486z M123.758,316.059H97.044
			c-3.02,0-5.478-2.457-5.478-5.482c0-3.029,2.451-5.482,5.478-5.482h26.714c3.031,0,5.482,2.453,5.482,5.482
			C129.24,313.594,126.781,316.059,123.758,316.059z M123.758,291.846H97.044c-3.02,0-5.478-2.453-5.478-5.482
			c0-3.025,2.451-5.478,5.478-5.478h26.714c3.031,0,5.482,2.452,5.482,5.478C129.24,289.393,126.781,291.846,123.758,291.846z
			 M123.758,267.645H97.044c-3.02,0-5.478-2.452-5.478-5.482c0-3.021,2.451-5.481,5.478-5.481h26.714
			c3.031,0,5.482,2.444,5.482,5.481C129.24,265.185,126.781,267.645,123.758,267.645z M123.758,243.432H97.044
			c-3.02,0-5.478-2.452-5.478-5.481c0-3.019,2.451-5.479,5.478-5.479h26.714c3.031,0,5.482,2.444,5.482,5.479
			C129.24,240.979,126.781,243.432,123.758,243.432z M123.758,219.231H97.044c-3.02,0-5.478-2.453-5.478-5.482
			c0-3.021,2.451-5.482,5.478-5.482h26.714c3.031,0,5.482,2.461,5.482,5.482S126.781,219.231,123.758,219.231z M123.758,195.016
			H97.044c-3.02,0-5.478-2.449-5.478-5.478c0-3.032,2.451-5.48,5.478-5.48h26.714c3.031,0,5.482,2.449,5.482,5.48
			C129.24,192.567,126.781,195.016,123.758,195.016z M123.758,170.817H97.044c-3.02,0-5.478-2.46-5.478-5.482
			c0-3.031,2.451-5.48,5.478-5.48h26.714c3.031,0,5.482,2.449,5.482,5.48C129.24,168.357,126.781,170.817,123.758,170.817z
			 M123.758,146.603H97.044c-3.02,0-5.478-2.457-5.478-5.476c0-3.034,2.451-5.482,5.478-5.482h26.714
			c3.031,0,5.482,2.449,5.482,5.482C129.24,144.146,126.781,146.603,123.758,146.603z M123.758,122.392H97.044
			c-3.02,0-5.478-2.448-5.478-5.476c0-3.032,2.451-5.482,5.478-5.482h26.714c3.031,0,5.482,2.45,5.482,5.482
			C129.24,119.943,126.781,122.392,123.758,122.392z M201.407,182.229c0,10.794-4.302,20.043-10.495,24.509v115.705
			c0,4.549-3.681,8.228-8.219,8.228s-8.217-3.688-8.217-8.228V206.738c-6.204-4.466-10.516-13.715-10.516-24.509v-13.708
			c0-10.794,4.312-20.039,10.516-24.505v-51.76c0-4.539,3.679-8.217,8.217-8.217s8.219,3.679,8.219,8.217v51.76
			c6.193,4.466,10.495,13.711,10.495,24.505V182.229z M242.271,215.107h-26.716c-3.025,0-5.482-2.457-5.482-5.475
			c0-3.037,2.451-5.486,5.482-5.486h26.716c3.029,0,5.474,2.449,5.474,5.486C247.762,212.65,245.301,215.107,242.271,215.107z
			 M291.835,233.381c0,10.797-4.3,20.042-10.503,24.51v64.552c0,4.549-3.688,8.228-8.22,8.228c-4.544,0-8.224-3.688-8.224-8.228
			v-64.544c-6.195-4.46-10.503-13.713-10.503-24.509v-13.698c0-10.795,4.308-20.041,10.503-24.511V92.256
			c0-4.539,3.688-8.217,8.224-8.217c4.532,0,8.22,3.679,8.22,8.217v102.911c6.203,4.468,10.503,13.713,10.503,24.509V233.381z
			 M329.962,215.107h-26.718c-3.029,0-5.482-2.457-5.482-5.475c0-3.037,2.453-5.486,5.482-5.486h26.718
			c3.025,0,5.474,2.449,5.474,5.486C335.448,212.65,332.987,215.107,329.962,215.107z M385.926,204.147
			c0,10.792-4.309,20.045-10.52,24.513v93.774c0,4.548-3.68,8.219-8.22,8.219c-4.536,0-8.215-3.679-8.215-8.219V228.66
			c-6.196-4.468-10.504-13.709-10.504-24.513v-13.703c0-10.794,4.308-20.043,10.504-24.509V92.248c0-4.539,3.679-8.218,8.215-8.218
			c4.557,0,8.22,3.679,8.22,8.218v73.678c6.211,4.466,10.52,13.711,10.52,24.505V204.147z"/>
	</g>
</g>
</svg>